<svg width="988" height="370" viewBox="0 0 988 370" fill="none" xmlns="http://www.w3.org/2000/svg">
  <!-- Les chemins ont maintenant des ID uniques -->
  <path id="saintes-spot-1" d="M334.424 298H24.3393C10.8971 298 0 308.849 0 322.233V345.599C0 358.983 10.8971 369.832 24.3393 369.832H334.424C347.866 369.832 358.763 358.983 358.763 345.599V322.233C358.763 308.849 347.866 298 334.424 298Z" fill="white"/>
  <path id="saintes-spot-2" d="M222.339 0H532.424C545.857 0 556.763 10.8581 556.763 24.2329V47.5992C556.763 60.974 545.857 71.8321 532.424 71.8321H222.339C208.906 71.8321 198 60.974 198 47.5992V24.2329C198 10.8581 208.906 0 222.339 0Z" fill="white"/>
  <path id="saintes-spot-3" d="M204.339 154H514.424C527.857 154 538.763 164.858 538.763 178.233V201.599C538.763 214.974 527.857 225.832 514.424 225.832H204.339C190.906 225.832 180 214.974 180 201.599V178.233C180 164.858 190.906 154 204.339 154Z" fill="white"/>
  <path id="saintes-spot-4" d="M653.577 20H963.661C977.094 20 988 30.8581 988 44.2329V67.5992C988 80.974 977.094 91.8321 963.661 91.8321H653.577C640.143 91.8321 629.237 80.974 629.237 67.5992V44.2329C629.237 30.8581 640.143 20 653.577 20Z" fill="white"/>
</svg>