<svg width="642" height="747" viewBox="0 0 642 747" fill="none" xmlns="http://www.w3.org/2000/svg">
  <!-- Les chemins ont maintenant des ID uniques -->
  <path id="mg-spot-1" d="M345.424 675H35.3393C21.8971 675 11 685.849 11 699.233V722.599C11 735.983 21.8971 746.832 35.3393 746.832H345.424C358.866 746.832 369.763 735.983 369.763 722.599V699.233C369.763 685.849 358.866 675 345.424 675Z" fill="white"/>
  <path id="mg-spot-2" d="M24.3393 125H334.424C347.857 125 358.763 135.858 358.763 149.233V172.599C358.763 185.974 347.857 196.832 334.424 196.832H24.3393C10.9058 196.832 0 185.974 0 172.599V149.233C0 135.858 10.9058 125 24.3393 125Z" fill="white"/>
  <path id="mg-spot-3" d="M204.339 550H514.424C527.857 550 538.763 560.858 538.763 574.233V597.599C538.763 610.974 527.857 621.832 514.424 621.832H204.339C190.906 621.832 180 610.974 180 597.599V574.233C180 560.858 190.906 550 204.339 550Z" fill="white"/>
  <path id="mg-spot-4" d="M307.339 0H617.424C630.857 0 641.763 10.8581 641.763 24.2329V47.5992C641.763 60.974 630.857 71.8321 617.424 71.8321H307.339C293.906 71.8321 283 60.974 283 47.5992V24.2329C283 10.8581 293.906 0 307.339 0Z" fill="white"/>
</svg>